<svg width="441" height="102" viewBox="0 0 441 102" fill="none" xmlns="http://www.w3.org/2000/svg">
<path d="M24.84 58.96C21.48 58.96 18.36 58.44 15.48 57.4C12.64 56.32 10.16 54.8 8.04 52.84C5.96 50.88 4.34 48.56 3.18 45.88C2.02 43.2 1.44 40.24 1.44 37C1.44 33.76 2.02 30.8 3.18 28.12C4.34 25.44 5.96 23.12 8.04 21.16C10.16 19.2 12.64 17.7 15.48 16.66C18.36 15.58 21.48 15.04 24.84 15.04C28.96 15.04 32.6 15.76 35.76 17.2C38.96 18.64 41.6 20.72 43.68 23.44L34.74 31.42C33.5 29.86 32.12 28.66 30.6 27.82C29.12 26.94 27.44 26.5 25.56 26.5C24.08 26.5 22.74 26.74 21.54 27.22C20.34 27.7 19.3 28.4 18.42 29.32C17.58 30.24 16.92 31.36 16.44 32.68C15.96 33.96 15.72 35.4 15.72 37C15.72 38.6 15.96 40.06 16.44 41.38C16.92 42.66 17.58 43.76 18.42 44.68C19.3 45.6 20.34 46.3 21.54 46.78C22.74 47.26 24.08 47.5 25.56 47.5C27.44 47.5 29.12 47.08 30.6 46.24C32.12 45.36 33.5 44.14 34.74 42.58L43.68 50.56C41.6 53.24 38.96 55.32 35.76 56.8C32.6 58.24 28.96 58.96 24.84 58.96ZM138.285 58L156.645 16H170.565L188.925 58H174.285L160.725 22.72H166.245L152.685 58H138.285ZM149.205 50.68L152.805 40.48H172.125L175.725 50.68H149.205ZM326.806 58V16H340.726V30.88H351.586V42.52H340.726V58H326.806ZM366.466 58.96C363.106 58.96 360.006 58.42 357.166 57.34C354.366 56.26 351.906 54.74 349.786 52.78C347.706 50.78 346.086 48.44 344.926 45.76C343.806 43.08 343.246 40.16 343.246 37C343.246 33.8 343.806 30.88 344.926 28.24C346.086 25.56 347.706 23.24 349.786 21.28C351.906 19.28 354.366 17.74 357.166 16.66C360.006 15.58 363.106 15.04 366.466 15.04C369.826 15.04 372.906 15.58 375.706 16.66C378.546 17.74 381.006 19.28 383.086 21.28C385.166 23.24 386.766 25.56 387.886 28.24C389.046 30.88 389.626 33.8 389.626 37C389.626 40.16 389.046 43.08 387.886 45.76C386.766 48.44 385.166 50.78 383.086 52.78C381.006 54.74 378.546 56.26 375.706 57.34C372.906 58.42 369.826 58.96 366.466 58.96ZM366.466 47.5C367.706 47.5 368.846 47.26 369.886 46.78C370.966 46.3 371.906 45.62 372.706 44.74C373.546 43.82 374.186 42.72 374.626 41.44C375.106 40.12 375.346 38.64 375.346 37C375.346 35.36 375.106 33.9 374.626 32.62C374.186 31.3 373.546 30.2 372.706 29.32C371.906 28.4 370.966 27.7 369.886 27.22C368.846 26.74 367.706 26.5 366.466 26.5C365.226 26.5 364.066 26.74 362.986 27.22C361.906 27.7 360.946 28.4 360.106 29.32C359.306 30.2 358.666 31.3 358.186 32.62C357.746 33.9 357.526 35.36 357.526 37C357.526 38.64 357.746 40.12 358.186 41.44C358.666 42.72 359.306 43.82 360.106 44.74C360.946 45.62 361.906 46.3 362.986 46.78C364.066 47.26 365.226 47.5 366.466 47.5Z" fill="#D8232E"/>
<path d="M47.9583 58V16H61.8783V37.84L76.3383 16H89.6583V58H75.7383V36.22L61.3383 58H47.9583ZM97.1184 58V16H133.538V26.68H111.038V31.54H121.058C126.178 31.54 130.098 32.64 132.818 34.84C135.578 37 136.958 40.14 136.958 44.26C136.958 48.54 135.398 51.9 132.278 54.34C129.158 56.78 124.818 58 119.258 58H97.1184ZM111.038 48.1H118.298C119.698 48.1 120.778 47.8 121.538 47.2C122.338 46.6 122.738 45.74 122.738 44.62C122.738 42.46 121.258 41.38 118.298 41.38H111.038V48.1ZM192.802 58V16H214.102C219.302 16 223.322 16.96 226.162 18.88C229.042 20.8 230.482 23.5 230.482 26.98C230.482 30.38 229.162 33.08 226.522 35.08C223.882 37.04 220.322 38.02 215.842 38.02L217.042 34.78C221.802 34.78 225.542 35.72 228.262 37.6C230.982 39.48 232.342 42.22 232.342 45.82C232.342 49.54 230.862 52.5 227.902 54.7C224.942 56.9 220.722 58 215.242 58H192.802ZM206.722 48.1H214.582C215.742 48.1 216.602 47.82 217.162 47.26C217.762 46.66 218.062 45.82 218.062 44.74C218.062 43.66 217.762 42.86 217.162 42.34C216.602 41.78 215.742 41.5 214.582 41.5H206.722V48.1ZM206.722 32.14H212.722C213.922 32.14 214.802 31.88 215.362 31.36C215.922 30.84 216.202 30.08 216.202 29.08C216.202 28.04 215.922 27.26 215.362 26.74C214.802 26.18 213.922 25.9 212.722 25.9H206.722V32.14ZM246.346 58V23.92L249.406 26.98H234.046V16H272.566V26.98H257.206L260.266 23.92V58H246.346ZM298.01 58.96C294.61 58.96 291.45 58.42 288.53 57.34C285.65 56.26 283.15 54.74 281.03 52.78C278.91 50.78 277.25 48.44 276.05 45.76C274.89 43.08 274.31 40.16 274.31 37C274.31 33.8 274.89 30.88 276.05 28.24C277.25 25.56 278.91 23.24 281.03 21.28C283.15 19.28 285.65 17.74 288.53 16.66C291.45 15.58 294.61 15.04 298.01 15.04C301.45 15.04 304.61 15.58 307.49 16.66C310.37 17.74 312.87 19.28 314.99 21.28C317.11 23.24 318.75 25.56 319.91 28.24C321.11 30.88 321.71 33.8 321.71 37C321.71 40.16 321.11 43.08 319.91 45.76C318.75 48.44 317.11 50.78 314.99 52.78C312.87 54.74 310.37 56.26 307.49 57.34C304.61 58.42 301.45 58.96 298.01 58.96ZM298.01 47.5C299.33 47.5 300.55 47.26 301.67 46.78C302.83 46.3 303.83 45.62 304.67 44.74C305.55 43.82 306.23 42.72 306.71 41.44C307.19 40.12 307.43 38.64 307.43 37C307.43 35.36 307.19 33.9 306.71 32.62C306.23 31.3 305.55 30.2 304.67 29.32C303.83 28.4 302.83 27.7 301.67 27.22C300.55 26.74 299.33 26.5 298.01 26.5C296.69 26.5 295.45 26.74 294.29 27.22C293.17 27.7 292.17 28.4 291.29 29.32C290.45 30.2 289.79 31.3 289.31 32.62C288.83 33.9 288.59 35.36 288.59 37C288.59 38.64 288.83 40.12 289.31 41.44C289.79 42.72 290.45 43.82 291.29 44.74C292.17 45.62 293.17 46.3 294.29 46.78C295.45 47.26 296.69 47.5 298.01 47.5ZM394.775 58V16H426.755V26.98H405.635L408.695 23.92V58H394.775Z" fill="black"/>
<path d="M14.212 95V91.192L14.042 90.478V83.984C14.042 82.6013 13.634 81.536 12.818 80.788C12.0247 80.0173 10.8233 79.632 9.214 79.632C8.14867 79.632 7.106 79.8133 6.086 80.176C5.066 80.516 4.20467 80.9807 3.502 81.57L2.142 79.122C3.07133 78.374 4.182 77.8073 5.474 77.422C6.78867 77.014 8.16 76.81 9.588 76.81C12.0587 76.81 13.9627 77.4107 15.3 78.612C16.6373 79.8133 17.306 81.6493 17.306 84.12V95H14.212ZM8.296 95.204C6.95867 95.204 5.78 94.9773 4.76 94.524C3.76267 94.0707 2.992 93.4473 2.448 92.654C1.904 91.838 1.632 90.92 1.632 89.9C1.632 88.9253 1.85867 88.0413 2.312 87.248C2.788 86.4547 3.54733 85.82 4.59 85.344C5.65533 84.868 7.08333 84.63 8.874 84.63H14.586V86.976H9.01C7.378 86.976 6.27867 87.248 5.712 87.792C5.14533 88.336 4.862 88.9933 4.862 89.764C4.862 90.648 5.21333 91.362 5.916 91.906C6.61867 92.4273 7.59333 92.688 8.84 92.688C10.064 92.688 11.1293 92.416 12.036 91.872C12.9653 91.328 13.634 90.5347 14.042 89.492L14.688 91.736C14.2573 92.8013 13.498 93.6513 12.41 94.286C11.322 94.898 9.95067 95.204 8.296 95.204ZM23.1835 95V76.98H31.5475C33.6555 76.98 35.3102 77.388 36.5115 78.204C37.7355 78.9973 38.3475 80.1307 38.3475 81.604C38.3475 83.0773 37.7695 84.222 36.6135 85.038C35.4802 85.8313 33.9728 86.228 32.0915 86.228L32.6015 85.344C34.7548 85.344 36.3528 85.7407 37.3955 86.534C38.4382 87.3273 38.9595 88.4947 38.9595 90.036C38.9595 91.6 38.3702 92.824 37.1915 93.708C36.0355 94.5693 34.2562 95 31.8535 95H23.1835ZM26.3795 92.484H31.6155C32.9755 92.484 33.9955 92.28 34.6755 91.872C35.3555 91.4413 35.6955 90.7613 35.6955 89.832C35.6955 88.88 35.3782 88.1887 34.7435 87.758C34.1315 87.3047 33.1568 87.078 31.8195 87.078H26.3795V92.484ZM26.3795 84.732H31.2755C32.5222 84.732 33.4628 84.5053 34.0975 84.052C34.7548 83.576 35.0835 82.9187 35.0835 82.08C35.0835 81.2187 34.7548 80.5727 34.0975 80.142C33.4628 79.7113 32.5222 79.496 31.2755 79.496H26.3795V84.732ZM47.6383 95V78.986L48.4543 79.836H41.0423V76.98H57.4983V79.836H50.1203L50.9022 78.986V95H47.6383ZM67.757 95.204C65.9436 95.204 64.3343 94.8073 62.929 94.014C61.5236 93.2207 60.413 92.1327 59.597 90.75C58.781 89.3447 58.373 87.758 58.373 85.99C58.373 84.1993 58.781 82.6127 59.597 81.23C60.413 79.8473 61.5236 78.7707 62.929 78C64.3343 77.2067 65.9436 76.81 67.757 76.81C69.5476 76.81 71.1456 77.2067 72.551 78C73.979 78.7707 75.0896 79.8473 75.883 81.23C76.699 82.59 77.107 84.1767 77.107 85.99C77.107 87.7807 76.699 89.3673 75.883 90.75C75.0896 92.1327 73.979 93.2207 72.551 94.014C71.1456 94.8073 69.5476 95.204 67.757 95.204ZM67.757 92.348C68.913 92.348 69.9443 92.0873 70.851 91.566C71.7803 91.0447 72.5056 90.308 73.027 89.356C73.5483 88.3813 73.809 87.2593 73.809 85.99C73.809 84.698 73.5483 83.5873 73.027 82.658C72.5056 81.706 71.7803 80.9693 70.851 80.448C69.9443 79.9267 68.913 79.666 67.757 79.666C66.601 79.666 65.5696 79.9267 64.663 80.448C63.7563 80.9693 63.031 81.706 62.487 82.658C61.943 83.5873 61.671 84.698 61.671 85.99C61.671 87.2593 61.943 88.3813 62.487 89.356C63.031 90.308 63.7563 91.0447 64.663 91.566C65.5696 92.0873 66.601 92.348 67.757 92.348ZM81.8202 95V76.98H85.1862L92.9382 90.308H91.5782L99.5342 76.98H102.594V95H99.6362V80.652L100.18 80.958L92.9042 92.96H91.4762L84.1662 80.72L84.8122 80.584V95H81.8202ZM116.665 95.204C114.852 95.204 113.242 94.8073 111.837 94.014C110.432 93.2207 109.321 92.1327 108.505 90.75C107.689 89.3447 107.281 87.758 107.281 85.99C107.281 84.1993 107.689 82.6127 108.505 81.23C109.321 79.8473 110.432 78.7707 111.837 78C113.242 77.2067 114.852 76.81 116.665 76.81C118.456 76.81 120.054 77.2067 121.459 78C122.887 78.7707 123.998 79.8473 124.791 81.23C125.607 82.59 126.015 84.1767 126.015 85.99C126.015 87.7807 125.607 89.3673 124.791 90.75C123.998 92.1327 122.887 93.2207 121.459 94.014C120.054 94.8073 118.456 95.204 116.665 95.204ZM116.665 92.348C117.821 92.348 118.852 92.0873 119.759 91.566C120.688 91.0447 121.414 90.308 121.935 89.356C122.456 88.3813 122.717 87.2593 122.717 85.99C122.717 84.698 122.456 83.5873 121.935 82.658C121.414 81.706 120.688 80.9693 119.759 80.448C118.852 79.9267 117.821 79.666 116.665 79.666C115.509 79.666 114.478 79.9267 113.571 80.448C112.664 80.9693 111.939 81.706 111.395 82.658C110.851 83.5873 110.579 84.698 110.579 85.99C110.579 87.2593 110.851 88.3813 111.395 89.356C111.939 90.308 112.664 91.0447 113.571 91.566C114.478 92.0873 115.509 92.348 116.665 92.348ZM139.058 95.272C137.562 95.272 136.236 95.034 135.08 94.558C133.947 94.082 132.972 93.3793 132.156 92.45C131.34 91.498 130.717 90.308 130.286 88.88C129.878 87.4293 129.674 85.7293 129.674 83.78C129.674 82.2387 129.81 80.856 130.082 79.632C130.354 78.408 130.74 77.32 131.238 76.368C131.76 75.416 132.394 74.5887 133.142 73.886C133.913 73.1833 134.774 72.6053 135.726 72.152C136.701 71.676 137.766 71.3133 138.922 71.064L147.15 69.228L147.626 72.254L140.044 73.886C139.591 73.9767 139.047 74.1127 138.412 74.294C137.778 74.4753 137.132 74.7587 136.474 75.144C135.817 75.5067 135.205 76.0167 134.638 76.674C134.072 77.3313 133.618 78.1927 133.278 79.258C132.938 80.3007 132.768 81.5927 132.768 83.134C132.768 83.5647 132.78 83.8933 132.802 84.12C132.825 84.3467 132.848 84.5733 132.87 84.8C132.916 85.0267 132.95 85.3667 132.972 85.82L131.612 84.426C131.975 83.1793 132.553 82.0913 133.346 81.162C134.14 80.2327 135.092 79.5187 136.202 79.02C137.336 78.4987 138.571 78.238 139.908 78.238C141.586 78.238 143.07 78.6007 144.362 79.326C145.677 80.0513 146.708 81.0487 147.456 82.318C148.204 83.5873 148.578 85.038 148.578 86.67C148.578 88.3247 148.182 89.8093 147.388 91.124C146.618 92.416 145.518 93.436 144.09 94.184C142.662 94.9093 140.985 95.272 139.058 95.272ZM139.364 92.552C140.52 92.552 141.54 92.3027 142.424 91.804C143.308 91.2827 144 90.5913 144.498 89.73C144.997 88.846 145.246 87.86 145.246 86.772C145.246 85.684 144.997 84.7207 144.498 83.882C144 83.0433 143.308 82.386 142.424 81.91C141.54 81.4113 140.498 81.162 139.296 81.162C138.163 81.162 137.143 81.4 136.236 81.876C135.33 82.3293 134.627 82.9753 134.128 83.814C133.63 84.63 133.38 85.582 133.38 86.67C133.38 87.758 133.63 88.7553 134.128 89.662C134.65 90.546 135.352 91.2487 136.236 91.77C137.143 92.2913 138.186 92.552 139.364 92.552ZM153.24 95V76.98H156.504V90.104L167.554 76.98H170.512V95H167.248V81.876L156.232 95H153.24ZM173.856 94.966L174.06 92.212C174.218 92.2347 174.366 92.2573 174.502 92.28C174.638 92.3027 174.762 92.314 174.876 92.314C175.601 92.314 176.168 92.0647 176.576 91.566C177.006 91.0673 177.324 90.41 177.528 89.594C177.732 88.7553 177.879 87.8147 177.97 86.772C178.06 85.7293 178.128 84.6867 178.174 83.644L178.48 76.98H192.318V95H189.054V78.884L189.836 79.836H180.588L181.336 78.85L181.098 83.848C181.03 85.4347 180.905 86.9193 180.724 88.302C180.542 89.6847 180.259 90.8973 179.874 91.94C179.511 92.9827 179.001 93.7987 178.344 94.388C177.709 94.9773 176.882 95.272 175.862 95.272C175.567 95.272 175.25 95.238 174.91 95.17C174.592 95.1247 174.241 95.0567 173.856 94.966ZM198.629 95V76.98H201.893V90.104L212.943 76.98H215.901V95H212.637V81.876L201.621 95H198.629ZM239.221 95.204C237.385 95.204 235.742 94.8073 234.291 94.014C232.863 93.2207 231.741 92.1327 230.925 90.75C230.109 89.3673 229.701 87.7807 229.701 85.99C229.701 84.1993 230.109 82.6127 230.925 81.23C231.741 79.8473 232.863 78.7707 234.291 78C235.742 77.2067 237.385 76.81 239.221 76.81C240.853 76.81 242.304 77.1387 243.573 77.796C244.865 78.4307 245.862 79.3827 246.565 80.652L244.083 82.25C243.494 81.366 242.768 80.72 241.907 80.312C241.068 79.8813 240.162 79.666 239.187 79.666C238.008 79.666 236.954 79.9267 236.025 80.448C235.096 80.9693 234.359 81.706 233.815 82.658C233.271 83.5873 232.999 84.698 232.999 85.99C232.999 87.282 233.271 88.404 233.815 89.356C234.359 90.308 235.096 91.0447 236.025 91.566C236.954 92.0873 238.008 92.348 239.187 92.348C240.162 92.348 241.068 92.144 241.907 91.736C242.768 91.3053 243.494 90.648 244.083 89.764L246.565 91.328C245.862 92.5747 244.865 93.538 243.573 94.218C242.304 94.8753 240.853 95.204 239.221 95.204ZM259.922 95V76.98H276.616V95H273.352V79.02L274.134 79.836H262.404L263.186 79.02V95H259.922ZM292.486 95.204C290.99 95.204 289.618 94.864 288.372 94.184C287.148 93.4813 286.162 92.45 285.414 91.09C284.688 89.73 284.326 88.03 284.326 85.99C284.326 83.95 284.677 82.25 285.38 80.89C286.105 79.53 287.08 78.51 288.304 77.83C289.55 77.15 290.944 76.81 292.486 76.81C294.254 76.81 295.818 77.1953 297.178 77.966C298.538 78.7367 299.614 79.8133 300.408 81.196C301.201 82.556 301.598 84.154 301.598 85.99C301.598 87.826 301.201 89.4353 300.408 90.818C299.614 92.2007 298.538 93.2773 297.178 94.048C295.818 94.8187 294.254 95.204 292.486 95.204ZM282.932 101.596V76.98H286.06V81.842L285.856 86.024L286.196 90.206V101.596H282.932ZM292.214 92.348C293.37 92.348 294.401 92.0873 295.308 91.566C296.237 91.0447 296.962 90.308 297.484 89.356C298.028 88.3813 298.3 87.2593 298.3 85.99C298.3 84.698 298.028 83.5873 297.484 82.658C296.962 81.706 296.237 80.9693 295.308 80.448C294.401 79.9267 293.37 79.666 292.214 79.666C291.08 79.666 290.049 79.9267 289.12 80.448C288.213 80.9693 287.488 81.706 286.944 82.658C286.422 83.5873 286.162 84.698 286.162 85.99C286.162 87.2593 286.422 88.3813 286.944 89.356C287.488 90.308 288.213 91.0447 289.12 91.566C290.049 92.0873 291.08 92.348 292.214 92.348ZM314.058 95.204C312.244 95.204 310.635 94.8073 309.23 94.014C307.824 93.2207 306.714 92.1327 305.898 90.75C305.082 89.3447 304.674 87.758 304.674 85.99C304.674 84.1993 305.082 82.6127 305.898 81.23C306.714 79.8473 307.824 78.7707 309.23 78C310.635 77.2067 312.244 76.81 314.058 76.81C315.848 76.81 317.446 77.2067 318.852 78C320.28 78.7707 321.39 79.8473 322.184 81.23C323 82.59 323.408 84.1767 323.408 85.99C323.408 87.7807 323 89.3673 322.184 90.75C321.39 92.1327 320.28 93.2207 318.852 94.014C317.446 94.8073 315.848 95.204 314.058 95.204ZM314.058 92.348C315.214 92.348 316.245 92.0873 317.152 91.566C318.081 91.0447 318.806 90.308 319.328 89.356C319.849 88.3813 320.11 87.2593 320.11 85.99C320.11 84.698 319.849 83.5873 319.328 82.658C318.806 81.706 318.081 80.9693 317.152 80.448C316.245 79.9267 315.214 79.666 314.058 79.666C312.902 79.666 311.87 79.9267 310.964 80.448C310.057 80.9693 309.332 81.706 308.788 82.658C308.244 83.5873 307.972 84.698 307.972 85.99C307.972 87.2593 308.244 88.3813 308.788 89.356C309.332 90.308 310.057 91.0447 310.964 91.566C311.87 92.0873 312.902 92.348 314.058 92.348ZM336.451 95.272C334.955 95.272 333.629 95.034 332.473 94.558C331.34 94.082 330.365 93.3793 329.549 92.45C328.733 91.498 328.11 90.308 327.679 88.88C327.271 87.4293 327.067 85.7293 327.067 83.78C327.067 82.2387 327.203 80.856 327.475 79.632C327.747 78.408 328.132 77.32 328.631 76.368C329.152 75.416 329.787 74.5887 330.535 73.886C331.306 73.1833 332.167 72.6053 333.119 72.152C334.094 71.676 335.159 71.3133 336.315 71.064L344.543 69.228L345.019 72.254L337.437 73.886C336.984 73.9767 336.44 74.1127 335.805 74.294C335.17 74.4753 334.524 74.7587 333.867 75.144C333.21 75.5067 332.598 76.0167 332.031 76.674C331.464 77.3313 331.011 78.1927 330.671 79.258C330.331 80.3007 330.161 81.5927 330.161 83.134C330.161 83.5647 330.172 83.8933 330.195 84.12C330.218 84.3467 330.24 84.5733 330.263 84.8C330.308 85.0267 330.342 85.3667 330.365 85.82L329.005 84.426C329.368 83.1793 329.946 82.0913 330.739 81.162C331.532 80.2327 332.484 79.5187 333.595 79.02C334.728 78.4987 335.964 78.238 337.301 78.238C338.978 78.238 340.463 78.6007 341.755 79.326C343.07 80.0513 344.101 81.0487 344.849 82.318C345.597 83.5873 345.971 85.038 345.971 86.67C345.971 88.3247 345.574 89.8093 344.781 91.124C344.01 92.416 342.911 93.436 341.483 94.184C340.055 94.9093 338.378 95.272 336.451 95.272ZM336.757 92.552C337.913 92.552 338.933 92.3027 339.817 91.804C340.701 91.2827 341.392 90.5913 341.891 89.73C342.39 88.846 342.639 87.86 342.639 86.772C342.639 85.684 342.39 84.7207 341.891 83.882C341.392 83.0433 340.701 82.386 339.817 81.91C338.933 81.4113 337.89 81.162 336.689 81.162C335.556 81.162 334.536 81.4 333.629 81.876C332.722 82.3293 332.02 82.9753 331.521 83.814C331.022 84.63 330.773 85.582 330.773 86.67C330.773 87.758 331.022 88.7553 331.521 89.662C332.042 90.546 332.745 91.2487 333.629 91.77C334.536 92.2913 335.578 92.552 336.757 92.552ZM358.657 95.204C356.73 95.204 355.03 94.8073 353.557 94.014C352.106 93.2207 350.973 92.1327 350.157 90.75C349.363 89.3673 348.967 87.7807 348.967 85.99C348.967 84.1993 349.352 82.6127 350.123 81.23C350.916 79.8473 351.993 78.7707 353.353 78C354.735 77.2067 356.288 76.81 358.011 76.81C359.756 76.81 361.297 77.1953 362.635 77.966C363.972 78.7367 365.015 79.8247 365.763 81.23C366.533 82.6127 366.919 84.2333 366.919 86.092C366.919 86.228 366.907 86.3867 366.885 86.568C366.885 86.7493 366.873 86.9193 366.851 87.078H351.517V84.732H365.151L363.825 85.548C363.847 84.392 363.609 83.3607 363.111 82.454C362.612 81.5473 361.921 80.8447 361.037 80.346C360.175 79.8247 359.167 79.564 358.011 79.564C356.877 79.564 355.869 79.8247 354.985 80.346C354.101 80.8447 353.409 81.5587 352.911 82.488C352.412 83.3947 352.163 84.4373 352.163 85.616V86.16C352.163 87.3613 352.435 88.438 352.979 89.39C353.545 90.3193 354.327 91.0447 355.325 91.566C356.322 92.0873 357.467 92.348 358.759 92.348C359.824 92.348 360.787 92.1667 361.649 91.804C362.533 91.4413 363.303 90.8973 363.961 90.172L365.763 92.28C364.947 93.232 363.927 93.9573 362.703 94.456C361.501 94.9547 360.153 95.204 358.657 95.204ZM371.982 95V76.98H385.242V79.836H374.464L375.246 79.088V95H371.982ZM395.505 95.204C393.692 95.204 392.082 94.8073 390.677 94.014C389.272 93.2207 388.161 92.1327 387.345 90.75C386.529 89.3447 386.121 87.758 386.121 85.99C386.121 84.1993 386.529 82.6127 387.345 81.23C388.161 79.8473 389.272 78.7707 390.677 78C392.082 77.2067 393.692 76.81 395.505 76.81C397.296 76.81 398.894 77.2067 400.299 78C401.727 78.7707 402.838 79.8473 403.631 81.23C404.447 82.59 404.855 84.1767 404.855 85.99C404.855 87.7807 404.447 89.3673 403.631 90.75C402.838 92.1327 401.727 93.2207 400.299 94.014C398.894 94.8073 397.296 95.204 395.505 95.204ZM395.505 92.348C396.661 92.348 397.692 92.0873 398.599 91.566C399.528 91.0447 400.254 90.308 400.775 89.356C401.296 88.3813 401.557 87.2593 401.557 85.99C401.557 84.698 401.296 83.5873 400.775 82.658C400.254 81.706 399.528 80.9693 398.599 80.448C397.692 79.9267 396.661 79.666 395.505 79.666C394.349 79.666 393.318 79.9267 392.411 80.448C391.504 80.9693 390.779 81.706 390.235 82.658C389.691 83.5873 389.419 84.698 389.419 85.99C389.419 87.2593 389.691 88.3813 390.235 89.356C390.779 90.308 391.504 91.0447 392.411 91.566C393.318 92.0873 394.349 92.348 395.505 92.348ZM409.568 95V76.98H412.934L420.686 90.308H419.326L427.282 76.98H430.342V95H427.384V80.652L427.928 80.958L420.652 92.96H419.224L411.914 80.72L412.56 80.584V95H409.568Z" fill="black"/>
</svg>
