<svg width="1774" height="701" viewBox="0 0 1774 701" fill="" xmlns="http://www.w3.org/2000/svg">
    <path d="M163.391 559.282C163.391 635.408 226.267 697.139 303.818 697.139C381.37 697.139 444.27 635.408 444.27 559.282C444.27 483.157 381.393 421.426 303.818 421.426C226.244 421.426 163.391 483.157 163.391 559.282ZM303.818 649.196C253.237 649.196 212.245 608.928 212.245 559.282C212.245 509.636 253.237 469.369 303.818 469.369C354.4 469.369 395.415 509.613 395.415 559.282C395.415 608.952 354.423 649.196 303.818 649.196Z"
          fill=""/>
    <path d="M1288.07 561.173C1288.07 638.185 1350.79 700.639 1428.13 700.639C1505.47 700.639 1568.21 638.185 1568.21 561.173C1568.21 484.161 1505.49 421.684 1428.13 421.684C1350.76 421.684 1288.07 484.138 1288.07 561.173ZM1428.13 652.136C1377.69 652.136 1336.79 611.402 1336.79 561.173C1336.79 510.944 1377.69 470.21 1428.13 470.21C1478.57 470.21 1519.47 510.944 1519.47 561.173C1519.47 611.402 1478.59 652.136 1428.13 652.136Z"
          fill=""/>
    <path fill-rule="evenodd" clip-rule="evenodd"
          d="M695.589 31.4436C704.058 18.5889 718.64 10.7266 734.388 10.5399L1568.65 0.741435C1587.06 0.531466 1603.9 10.8199 1611.6 27.0342L1727.58 270.738C1732.34 271.894 1736.6 274.546 1739.74 278.305C1742.87 282.064 1744.72 286.731 1745.01 291.619L1753.22 469.112C1764 470.932 1772.3 479.821 1772.54 490.646L1773.35 530.237C1773.56 540.945 1765.75 550.301 1754.74 552.47L1634.7 578.296C1632.7 578.75 1630.6 578.532 1628.74 577.676C1626.88 576.82 1625.35 575.373 1624.39 573.56C1609.01 543.162 1585.82 468.529 1574.53 437.734L1562.79 412.304C1558.71 403.721 1552.12 396.58 1543.9 391.826C1535.67 387.072 1526.19 384.931 1516.72 385.685L1295.07 400.289C1278.67 401.479 1267.43 418.067 1260.08 432.345L1190.08 583.989L548.488 583.289L431.834 420.68C423.459 409.855 410.79 397.956 396.838 397.35L210.192 385.685C189.544 384.775 170.296 401.736 163.53 420.68L105.577 583.802H129.981V583.989L23.3593 583.289C10.3641 583.196 -0.0415422 572.861 0.215096 560.262L2.03496 471.702C2.26827 459.197 12.9305 449.259 25.8325 449.492L60.0119 450.099V410.834H43.0272C34.2548 410.834 28.6319 401.806 32.6915 394.27L63.8614 336.482C67.8976 329.016 75.8536 324.327 84.556 324.327H101.471L140.2 269.035C147.969 260.94 158.514 255.877 169.853 254.804L571.819 222.375L695.589 31.4436ZM992.659 56.9899H754.125C749.996 56.9899 746.17 59.1129 744.07 62.5424L674.311 176.906C672.468 179.915 674.731 183.741 678.347 183.741H731.961C734.983 183.734 737.894 184.877 740.104 186.937L781.119 225.548C782.006 226.365 783.172 226.832 784.385 226.832H992.659C999.099 226.832 1004.32 221.769 1004.32 215.517V68.3282C1004.32 62.0758 999.099 57.0132 992.659 57.0132V56.9899ZM1062.7 56.9899C1056.26 56.9899 1051.03 62.0525 1051.03 68.3049V215.493C1051.03 221.746 1056.26 226.808 1062.7 226.808H1272.86C1279.3 226.808 1284.53 221.746 1284.53 215.493V68.3049C1284.53 62.0525 1279.3 56.9899 1272.86 56.9899H1062.7ZM1331.24 68.3049C1331.24 62.0525 1336.46 56.9899 1342.9 56.9899H1522.29C1524.49 56.9723 1526.65 57.5762 1528.52 58.7319C1530.39 59.8877 1531.89 61.5482 1532.86 63.5222L1603.72 210.711C1607.31 218.223 1601.66 226.808 1593.12 226.808H1342.9C1336.46 226.808 1331.24 221.746 1331.24 215.493V68.3049ZM1679.28 303.167C1672.82 303.377 1667.83 308.626 1668.11 314.855L1671.93 400.289C1672.13 403.343 1673.51 406.198 1675.79 408.24C1678.07 410.283 1681.06 411.348 1684.11 411.208L1710.78 410.321C1717.22 410.111 1722.21 404.862 1721.93 398.633L1718.11 313.199C1717.91 310.15 1716.53 307.298 1714.26 305.256C1711.99 303.214 1709 302.146 1705.95 302.28L1679.28 303.167Z"
          fill=""/>
</svg>
