<svg width="1774" height="631" viewBox="0 0 1774 631" fill="" xmlns="http://www.w3.org/2000/svg">
    <path fill-rule="evenodd" clip-rule="evenodd"
          d="M1531.46 59.5475C1569.75 72.4723 1697.37 137.026 1722.87 175.777C1726.69 179.65 1724.78 188.189 1722.28 199.27V199.317C1717.22 221.9 1709.78 255.075 1743.65 281.158C1754.13 289.23 1763.9 299.052 1767.24 311.93C1799.58 436.862 1697.46 492.854 1604.51 517.35L1585.87 518.33C1586.43 513.057 1586.71 507.691 1586.71 502.256C1586.71 462.037 1570.73 423.466 1542.29 395.027C1513.85 366.588 1475.28 350.611 1435.06 350.611C1394.84 350.611 1356.26 366.588 1327.82 395.027C1299.38 423.466 1283.41 462.037 1283.41 502.256C1283.41 511.742 1284.29 521.209 1286.04 530.531L434.191 554.678C440.21 538.347 443.5 520.686 443.5 502.256C443.5 462.037 427.522 423.466 399.082 395.027C370.642 366.588 332.07 350.611 291.85 350.611C251.63 350.611 213.057 366.588 184.617 395.027C156.177 423.466 140.2 462.037 140.2 502.256C140.2 522.039 144.002 540.96 150.885 558.294C92.1381 551.692 20.8626 536.434 20.8626 500.086C20.8626 492.877 22.4492 488.444 23.989 484.175C25.5288 479.906 27.0454 475.59 26.7655 468.707C26.3455 457.532 21.4459 440.245 15.9865 420.951V420.928L15.9399 420.764V420.741C3.97119 378.56 -10.6804 326.838 12.4404 308.384C107.887 232.189 314.131 201.067 500.03 191.805C517.785 182.729 537.476 171.998 557.447 161.103L557.517 161.056C658.143 106.184 842.386 21.3798 957.29 7.91845C1042.54 -2.06675 1348.64 -8.03922 1518.58 33.7446C1530.43 36.6609 1530.5 48.0925 1530.55 54.7415C1530.55 57.5411 1530.57 59.5242 1531.46 59.5708V59.5475ZM1382.59 57.7978C1387.74 58.3343 1390.64 63.9802 1387.93 68.4362C1362.9 109.66 1329.02 148.738 1289.03 160.309C1284.92 161.499 1281.14 157.836 1281.91 153.614L1298.04 63.8402C1299.32 56.6546 1305.78 51.5687 1313.08 52.0353C1336.29 53.5378 1359.46 55.4668 1382.59 57.8211V57.7978ZM1235.07 48.2092C1242.37 48.4425 1247.71 55.1148 1246.43 62.3004L1229.16 158.35C1227.88 165.605 1222 171.181 1214.67 172.021C1156.07 178.81 1071.47 186.042 977.727 193.041C976.631 193.118 975.532 192.944 974.513 192.533C973.495 192.122 972.583 191.484 971.848 190.667C971.112 189.851 970.573 188.878 970.27 187.822C969.966 186.766 969.908 185.654 970.098 184.572L992.169 61.8105C993.336 55.2781 998.795 50.4022 1005.42 50.0289C1062.02 46.8094 1146.39 45.2463 1235.07 48.1858V48.2092ZM931.276 57.9144C936.175 57.0045 940.398 61.2972 939.512 66.1732L918.211 184.666C917.55 188.344 915.682 191.697 912.902 194.195C910.121 196.692 906.587 198.191 902.859 198.454L663.812 213.945V201.603C663.812 181.843 646.804 175.777 638.288 175.777H617.71C711.873 128.977 838.023 75.3885 931.276 57.9144ZM1678.54 256.708V256.615C1678.56 256.358 1678.61 256.102 1679.03 253.559L1682.39 233.519C1684.23 222.46 1685.44 214.551 1686 204.963C1686.19 201.953 1683.79 199.434 1680.78 199.434L1563.75 199.107C1554.02 198.734 1523.69 202.466 1557.99 223.23C1592.28 243.994 1611.41 252.976 1624.27 256.708C1637.13 260.441 1661.93 263.311 1674.2 261.654C1676.65 261.328 1678.37 259.181 1678.54 256.708ZM198.69 310.041C181.658 325.368 140.433 357.074 111.806 361.156C83.1794 365.239 58.9854 366.266 50.4697 366.266C41.9539 366.266 26.9519 363.209 35.141 350.938C38.7573 345.502 50.5862 338.503 64.678 331.667C98.5542 315.266 135.51 304.931 173.143 304.931C189.498 304.931 196.987 308.337 198.69 310.041Z"
          fill=""/>
    <path d="M1306.74 502.232C1306.74 536.264 1320.26 568.901 1344.32 592.964C1368.39 617.028 1401.03 630.547 1435.06 630.547C1469.09 630.547 1501.73 617.028 1525.79 592.964C1549.86 568.901 1563.38 536.264 1563.38 502.232C1563.38 468.201 1549.86 435.564 1525.79 411.5C1501.73 387.437 1469.09 373.918 1435.06 373.918C1401.03 373.918 1368.39 387.437 1344.32 411.5C1320.26 435.564 1306.74 468.201 1306.74 502.232ZM1435.06 585.917C1412.87 585.898 1391.59 577.076 1375.9 561.386C1360.21 545.696 1351.39 524.421 1351.37 502.232C1351.39 480.044 1360.21 458.769 1375.9 443.079C1391.59 427.389 1412.87 418.567 1435.06 418.548C1457.25 418.567 1478.52 427.389 1494.21 443.079C1509.9 458.769 1518.73 480.044 1518.74 502.232C1518.73 524.421 1509.9 545.696 1494.21 561.386C1478.52 577.076 1457.25 585.898 1435.06 585.917Z"
          fill=""/>
    <path d="M163.531 502.232C163.531 536.264 177.05 568.901 201.114 592.964C225.179 617.028 257.817 630.547 291.85 630.547C325.882 630.547 358.521 617.028 382.585 592.964C406.65 568.901 420.169 536.264 420.169 502.232C420.169 468.201 406.65 435.564 382.585 411.5C358.521 387.437 325.882 373.918 291.85 373.918C257.817 373.918 225.179 387.437 201.114 411.5C177.05 435.564 163.531 468.201 163.531 502.232ZM291.85 585.917C269.66 585.898 248.385 577.076 232.694 561.386C217.004 545.696 208.181 524.421 208.162 502.232C208.181 480.044 217.004 458.769 232.694 443.079C248.385 427.389 269.66 418.567 291.85 418.548C314.039 418.567 335.315 427.389 351.005 443.079C366.696 458.769 375.519 480.044 375.537 502.232C375.519 524.421 366.696 545.696 351.005 561.386C335.315 577.076 314.039 585.898 291.85 585.917Z"
          fill=""/>
</svg>
