<svg width="1774" height="561" viewBox="0 0 1774 561" fill="" xmlns="http://www.w3.org/2000/svg">
    <path fill-rule="evenodd" clip-rule="evenodd"
          d="M1691.7 115.552L1673.89 108.926C1650.34 99.4613 1626.17 91.6196 1601.55 85.4563L1565.48 76.4043C1437.95 44.3723 1431.04 42.6226 1302.24 21.0891C1139.83 -6.04352 945.671 -2.07741 868.423 6.95126C797.171 15.28 728.555 43.9525 679.887 64.2961L677.297 65.3693L677.017 65.4859L668.012 69.242C628.816 85.4796 530.104 133.679 484.935 156.683C316.487 165.058 95.0779 183.045 8.59073 251.938C-1.32485 259.847 0.401645 278.301 2.40809 299.625V299.671C3.92459 315.862 5.60457 333.686 2.43159 349.761C-8.88384 407.036 23.3128 451.596 97.1313 457.335C124.184 459.511 151.287 460.989 178.416 461.768C182.249 461.846 186.083 461.901 189.918 461.931C187.878 451.887 186.854 441.664 186.861 431.415C186.806 391.139 202.751 352.49 231.19 323.968C259.629 295.447 298.233 279.39 338.511 279.328C378.789 279.39 417.393 295.447 445.833 323.968C474.272 352.49 490.217 391.139 490.161 431.415C490.173 442.349 489.007 453.253 486.685 463.937L598.719 464.567H1026.89L1254.08 466.527C1257.4 466.451 1260.71 466.295 1264.02 466.06C1261.4 454.706 1260.08 443.091 1260.08 431.439C1260.02 391.162 1275.97 352.513 1304.41 323.992C1332.84 295.47 1371.45 279.413 1411.73 279.351C1452 279.413 1490.61 295.47 1519.05 323.992C1547.49 352.513 1563.43 391.162 1563.38 431.439C1563.37 436.455 1563.13 441.469 1562.65 446.463L1564.33 446.393L1565.43 446.347C1583.04 445.577 1644.66 437.481 1691.3 427.216C1719.95 420.917 1747.83 406.919 1762.02 381.256C1777.48 353.26 1777.55 321.508 1759.56 285.044C1745.1 268.316 1750.44 241.79 1755.11 218.763C1756.81 210.341 1758.42 202.362 1758.91 195.55C1759.6 187.62 1759.99 179.667 1760.08 171.707V170.004C1760.1 154.023 1715.03 123.461 1691.7 115.599V115.552ZM668.058 116.672L635.092 130.74C647.411 129.48 658.563 130.926 665.865 137.155C672.872 143.123 677.555 151.365 679.094 160.439L898.1 150.873C901.661 150.706 905.058 149.325 907.727 146.962C910.397 144.598 912.177 141.393 912.775 137.879L926.68 59.2335C927.59 54.1942 923.577 49.6449 918.537 49.9715C901.816 51.048 885.122 52.5182 868.47 54.381C797.217 62.7097 728.602 91.3821 679.934 111.702L677.344 112.776L677.041 112.892H677.017L676.294 113.196L668.058 116.625V116.672ZM979.151 135.779C978.101 141.751 982.79 147.187 988.763 146.931L1229.14 136.432C1236.44 136.106 1242.53 130.716 1243.84 123.437L1252.56 74.0247C1253.87 66.7458 1248.99 59.8168 1241.79 58.767C1164.14 47.5686 1079.22 45.0723 1007.66 46.3088C1000.27 46.4488 994.012 51.8846 992.706 59.2802L979.151 135.779ZM1302.24 121.664C1301.19 127.637 1301.42 132.816 1311.85 132.816L1340.92 131.556C1342.46 131.556 1344.49 131.556 1400.06 127.263L1443.11 123.437L1449.34 123.041C1461.63 122.271 1467.6 112.332 1455.85 108.646C1453.33 107.853 1450.9 107.036 1448.94 105.893C1446.84 104.657 1436.15 101.857 1423.86 98.6144L1400.06 92.1754C1381.19 86.7628 1353.4 80.4638 1326.2 75.6112L1324.38 75.1212C1317.17 73.2082 1309.96 78.0141 1308.63 85.4563L1302.24 121.664ZM1718.92 236.144L1718.95 236.051C1718.95 235.794 1718.99 235.538 1719.41 233.041L1722.68 213.211C1724.37 203.866 1725.55 194.434 1726.2 184.958C1726.37 181.972 1724.03 179.499 1721.12 179.476L1607.54 179.149C1598.09 178.799 1568.67 182.485 1601.94 203.039C1635.21 223.593 1653.81 232.481 1666.27 236.167C1678.72 239.854 1702.8 242.7 1714.72 241.043C1717.1 240.717 1718.78 238.594 1718.92 236.144ZM205.689 226.066C189.148 241.23 149.135 272.585 121.372 276.645C93.608 280.704 70.0909 281.707 61.8318 281.707C53.5728 281.707 39.0143 278.675 46.9468 266.543C50.4931 261.13 62.0185 254.201 75.7603 247.412C108.517 231.245 144.376 221.026 180.889 221.026C196.754 221.026 204.033 224.386 205.689 226.089V226.066ZM1283.41 431.415C1283.37 465.492 1296.87 498.189 1320.93 522.32C1344.99 546.451 1377.65 560.041 1411.73 560.103C1445.86 560.103 1478.59 546.545 1502.73 522.411C1526.86 498.278 1540.42 465.546 1540.42 431.415C1540.42 397.285 1526.86 364.553 1502.73 340.419C1478.59 316.286 1445.86 302.728 1411.73 302.728C1377.65 302.789 1344.99 316.379 1320.93 340.51C1296.87 364.641 1283.37 397.339 1283.41 431.415ZM1411.73 515.333C1365.51 515.333 1328.04 477.749 1328.04 431.415C1328.04 385.082 1365.51 347.498 1411.73 347.498C1457.94 347.498 1495.41 385.082 1495.41 431.415C1495.41 477.749 1457.94 515.333 1411.73 515.333ZM210.192 431.415C210.155 465.492 223.65 498.189 247.712 522.32C271.774 546.451 304.433 560.041 338.511 560.103C372.643 560.103 405.376 546.545 429.511 522.411C453.645 498.278 467.204 465.546 467.204 431.415C467.204 397.285 453.645 364.553 429.511 340.419C405.376 316.286 372.643 302.728 338.511 302.728C304.433 302.789 271.774 316.379 247.712 340.51C223.65 364.641 210.155 397.339 210.192 431.415ZM338.511 515.333C292.293 515.333 254.824 477.749 254.824 431.415C254.824 385.082 292.293 347.498 338.511 347.498C384.73 347.498 422.199 385.082 422.199 431.415C422.199 477.749 384.73 515.333 338.511 515.333Z"
          fill=""/>
</svg>
