<svg width="1774" height="561" viewBox="0 0 1774 561" fill="" xmlns="http://www.w3.org/2000/svg">
    <path fill-rule="evenodd" clip-rule="evenodd"
          d="M1740.64 128.78C1730.4 126.984 1645.76 119.635 1604.7 116.182C1562.91 101.041 1448.71 62.5464 1326.17 29.7912C1173.01 -11.1528 945.672 -0.350985 868.423 8.65436C797.171 16.9365 728.556 45.5389 679.888 65.8125L677.298 66.8858L677.018 67.0024L668.012 70.7351C628.817 86.9494 530.104 134.986 484.936 157.942C316.488 166.295 95.0784 184.212 8.59122 252.918C-1.32436 260.804 0.402134 279.211 2.40858 300.465V300.511C3.92508 316.656 5.60506 334.433 2.43208 350.461C-8.88335 407.572 23.3133 451.992 97.1318 457.708C112.04 458.875 139.944 461.021 178.416 462.141C179.839 462.187 183.852 462.234 189.918 462.304C187.878 452.292 186.855 442.1 186.862 431.882C186.882 410.604 191.38 389.569 200.064 370.144C208.747 350.719 221.421 333.338 237.263 319.132C253.104 304.926 271.758 294.213 292.011 287.688C312.265 281.164 333.664 278.975 354.819 281.263C375.974 283.551 396.411 290.265 414.801 300.969C433.191 311.673 449.122 326.127 461.56 343.392C473.997 360.656 482.662 380.345 486.991 401.177C491.319 422.01 491.215 443.521 486.685 464.311L598.72 464.941H1026.89L1254.08 466.877C1255.41 466.877 1258.84 466.713 1264.02 466.41C1261.45 455.305 1260.08 443.757 1260.08 431.882C1260.08 391.663 1276.05 353.092 1304.49 324.653C1332.93 296.214 1371.51 280.238 1411.73 280.238C1451.95 280.238 1490.52 296.214 1518.96 324.653C1547.4 353.092 1563.38 391.663 1563.38 431.882C1563.38 436.945 1563.12 441.937 1562.65 446.883L1564.36 446.79L1565.43 446.743C1583.07 445.973 1644.68 437.901 1691.35 427.659C1719.95 421.407 1747.83 407.455 1762.02 381.839C1777.48 353.913 1777.55 322.255 1759.57 285.907C1745.1 269.226 1750.44 242.77 1755.11 219.813C1756.81 211.415 1758.42 203.482 1758.91 196.67C1759.5 188.948 1760.08 181.039 1760.08 172.897V171.194C1760.1 155.236 1760.17 132.21 1740.64 128.78V128.78ZM668.059 118.048L635.093 132.07C647.411 130.833 658.563 132.256 665.866 138.462C673.658 145.087 677.555 153.346 679.094 161.675L898.1 152.157C901.658 151.99 905.053 150.613 907.721 148.254C910.39 145.895 912.173 142.696 912.775 139.185L926.681 60.7734C927.59 55.7574 923.577 51.208 918.538 51.5346C901.816 52.6111 885.122 54.0813 868.47 55.9441C797.218 64.2495 728.602 92.8286 679.934 113.102L677.344 114.199L677.041 114.315H677.018L676.295 114.619L668.059 118.048ZM979.151 137.085C978.101 143.035 982.791 148.47 988.764 148.19L1229.14 137.739C1236.44 137.412 1242.53 132.023 1243.84 124.767L1252.56 75.4945C1253.87 68.2389 1249 61.3332 1241.79 60.2834C1164.14 49.1317 1079.22 46.6121 1007.66 47.8719C1000.27 47.9886 994.013 53.4244 992.706 60.7967L979.151 137.085V137.085ZM1302.24 123.018C1301.19 128.967 1305.85 134.402 1311.85 134.123L1340.92 132.863C1359.19 132.069 1377.08 127.38 1393.44 119.121L1408.9 111.306C1413.13 109.183 1412.59 102.93 1408.09 101.531L1390.43 95.9781C1371.16 89.889 1355.34 84.8731 1326.2 77.0809L1324.38 76.6144C1317.17 74.7013 1309.96 79.5072 1308.63 86.9261L1302.24 123.018V123.018ZM1718.92 237.171L1718.95 237.077C1718.95 236.821 1718.99 236.564 1719.41 234.068L1722.68 214.284C1724.48 203.366 1725.64 195.573 1726.2 186.101C1726.25 185.404 1726.15 184.706 1725.91 184.048C1725.68 183.39 1725.31 182.787 1724.84 182.276C1724.36 181.765 1723.78 181.357 1723.14 181.076C1722.51 180.795 1721.81 180.647 1721.12 180.642L1607.54 180.316C1598.09 179.966 1568.67 183.652 1601.94 204.136C1635.21 224.619 1653.81 233.485 1666.27 237.171C1678.72 240.857 1702.8 243.68 1714.72 242.047C1717.1 241.72 1718.78 239.597 1718.92 237.171V237.171ZM205.69 227.115C189.148 242.233 149.136 273.519 121.372 277.555C93.6085 281.591 70.0914 282.594 61.8323 282.594C53.5732 282.594 39.0148 279.561 46.9473 267.453C50.4936 262.064 61.9955 255.158 75.7373 248.392C108.517 232.271 144.377 222.076 180.889 222.076C196.754 222.076 204.033 225.436 205.69 227.115Z"
          fill=""/>
    <path d="M1283.41 431.883C1283.41 465.914 1296.93 498.551 1320.99 522.615C1345.06 546.678 1377.69 560.197 1411.73 560.197C1445.76 560.197 1478.4 546.678 1502.46 522.615C1526.53 498.551 1540.05 465.914 1540.05 431.883C1540.05 397.852 1526.53 365.214 1502.46 341.151C1478.4 317.087 1445.76 303.568 1411.73 303.568C1377.69 303.568 1345.06 317.087 1320.99 341.151C1296.93 365.214 1283.41 397.852 1283.41 431.883ZM1411.73 515.567C1389.54 515.549 1368.26 506.726 1352.57 491.036C1336.88 475.346 1328.06 454.072 1328.04 431.883C1328.06 409.694 1336.88 388.419 1352.57 372.729C1368.26 357.04 1389.54 348.217 1411.73 348.198C1433.92 348.217 1455.19 357.04 1470.88 372.729C1486.57 388.419 1495.4 409.694 1495.41 431.883C1495.4 454.072 1486.57 475.346 1470.88 491.036C1455.19 506.726 1433.92 515.549 1411.73 515.567Z"
          fill=""/>
    <path d="M210.192 431.883C210.192 465.914 223.712 498.551 247.776 522.615C271.841 546.678 304.479 560.197 338.512 560.197C372.544 560.197 405.182 546.678 429.247 522.615C453.311 498.551 466.831 465.914 466.831 431.883C466.831 397.852 453.311 365.214 429.247 341.151C405.182 317.087 372.544 303.568 338.512 303.568C304.479 303.568 271.841 317.087 247.776 341.151C223.712 365.214 210.192 397.852 210.192 431.883ZM338.512 515.567C316.322 515.549 295.047 506.726 279.356 491.036C263.666 475.346 254.843 454.072 254.824 431.883C254.843 409.694 263.666 388.419 279.356 372.729C295.047 357.04 316.322 348.217 338.512 348.198C360.701 348.217 381.977 357.04 397.667 372.729C413.358 388.419 422.18 409.694 422.199 431.883C422.18 454.072 413.358 475.346 397.667 491.036C381.977 506.726 360.701 515.549 338.512 515.567Z"
          fill=""/>
</svg>
