<svg width="1774" height="585" viewBox="0 0 1774 585" fill="" xmlns="http://www.w3.org/2000/svg">
    <path fill-rule="evenodd" clip-rule="evenodd"
          d="M1733.32 256.345C1728.56 281.961 1725.32 299.458 1749.51 326.078C1787.94 372.201 1780.26 428.543 1723.89 454.159C1688.59 469.86 1647.27 476.322 1607.52 482.528L1583.63 486.331C1585.68 476.272 1586.71 466.033 1586.71 455.769C1586.71 415.55 1570.73 376.979 1542.29 348.54C1513.85 320.101 1475.28 304.124 1435.06 304.124C1394.84 304.124 1356.26 320.101 1327.82 348.54C1299.39 376.979 1283.41 415.55 1283.41 455.769C1283.39 467.841 1284.83 479.872 1287.68 491.603L1268.83 491.65H462.561C465.361 480.148 466.831 468.134 466.831 455.769C466.831 415.55 450.853 376.979 422.413 348.54C393.973 320.101 355.401 304.124 315.181 304.124C274.961 304.124 236.388 320.101 207.948 348.54C179.508 376.979 163.531 415.55 163.531 455.769C163.531 468.227 165.024 480.312 167.87 491.907L132.991 490.553L125.385 488.827C-7.62367 455.582 -6.2938 443.171 4.81164 339.446L6.93447 319.662L7.54109 313.27C10.1075 279.978 35.7247 256.928 45.9669 249.229C122.002 190.391 268.426 183.182 415.62 175.927L481.459 172.38L566.01 126.281L591.207 112.842L591.254 112.819L591.301 112.796C670.065 70.6386 749.879 27.945 840.1 18.6831C968.209 -6.93318 1314.02 -6.93327 1480.53 31.4911C1484.71 32.8909 1488.86 33.5209 1493.41 34.2208H1493.43C1497.3 34.804 1501.46 35.4339 1506.15 36.6237L1510.65 37.5104L1511.14 37.6037C1535.52 42.433 1561.37 47.5189 1544.57 57.1075C1536.9 64.8063 1595.81 100.664 1644.5 128.847L1652.45 133.256H1652.48C1705.16 162.325 1746.52 185.165 1733.32 256.345ZM645.731 157.332C658.143 164.261 660.429 173.99 659.053 182.202L912.868 175.32C918.544 175.153 924 173.091 928.367 169.463C932.735 165.836 935.763 160.851 936.969 155.303L956.403 65.1328C957.827 58.5538 952.508 52.4179 945.788 52.9545C907.829 55.8941 875.119 59.8604 850.458 64.8064C764.065 73.6717 687.213 113.192 611.668 153.53C625.293 152.247 637.822 152.9 645.731 157.332ZM1047.98 47.8689C1038.67 48.1022 1030.78 54.7045 1028.82 63.8032L1008.73 157.03C1007.01 165.055 1013.26 172.59 1021.47 172.38L1248.41 166.221C1252.93 166.105 1257.23 164.271 1260.43 161.093C1263.64 157.916 1265.52 153.633 1265.68 149.121L1266.61 122.898L1235.98 64.5963C1230.91 54.9611 1221.09 48.7553 1210.22 48.4054C1156.16 46.6571 1102.05 46.4783 1047.98 47.8689ZM1323.21 54.5177C1317.26 54.0511 1313.15 60.327 1315.93 65.5995L1359.75 149.027C1361.96 153.219 1365.3 156.709 1369.39 159.104C1373.48 161.499 1378.15 162.703 1382.89 162.582L1503.07 159.339C1509.41 159.153 1512.7 151.757 1508.46 147.021C1447.96 79.8309 1389.28 60.7237 1365.04 58.274L1323.21 54.5177ZM1704.71 216.334C1708.73 216.147 1712.25 219.064 1712.41 223.076C1712.83 233.085 1711.83 243.91 1709.85 251.049C1709.1 253.755 1706.56 255.365 1703.83 255.948C1693.07 258.304 1687.99 266.283 1685.98 273.376C1684.84 277.435 1681.48 280.888 1677.28 280.888H1659.27C1650.73 268.08 1631.11 239.897 1620.84 229.655C1610.57 219.413 1616.57 216.847 1620.84 216.847H1684.88C1691.5 216.828 1698.11 216.657 1704.71 216.334ZM73.2874 268.103C86.0727 262.97 170.717 254.362 170.717 254.362C174.986 254.362 183.432 265.537 162.948 286.02L137.307 311.637H86.0724C86.0724 307.367 83.5296 298.828 73.2874 298.828H47.67C47.67 298.828 60.4555 273.212 73.2874 268.103Z"
          fill=""/>
    <path d="M1306.74 455.769C1306.74 489.8 1320.26 522.437 1344.32 546.501C1368.39 570.564 1401.03 584.083 1435.06 584.083C1469.09 584.083 1501.73 570.564 1525.79 546.501C1549.86 522.437 1563.38 489.8 1563.38 455.769C1563.38 421.737 1549.86 389.1 1525.79 365.037C1501.73 340.973 1469.09 327.454 1435.06 327.454C1401.03 327.454 1368.39 340.973 1344.32 365.037C1320.26 389.1 1306.74 421.737 1306.74 455.769ZM1435.06 539.453C1412.87 539.434 1391.59 530.612 1375.9 514.922C1360.21 499.232 1351.39 477.957 1351.37 455.769C1351.39 433.58 1360.21 412.305 1375.9 396.615C1391.59 380.925 1412.87 372.103 1435.06 372.084C1457.25 372.103 1478.52 380.925 1494.21 396.615C1509.9 412.305 1518.73 433.58 1518.75 455.769C1518.73 477.957 1509.9 499.232 1494.21 514.922C1478.52 530.612 1457.25 539.434 1435.06 539.453Z"
          fill="black"/>
    <path d="M186.862 455.769C186.862 489.8 200.381 522.437 224.446 546.501C248.51 570.564 281.149 584.083 315.181 584.083C349.213 584.083 381.852 570.564 405.916 546.501C429.981 522.437 443.5 489.8 443.5 455.769C443.5 421.737 429.981 389.1 405.916 365.037C381.852 340.973 349.213 327.454 315.181 327.454C281.149 327.454 248.51 340.973 224.446 365.037C200.381 389.1 186.862 421.737 186.862 455.769ZM315.181 539.453C292.991 539.434 271.716 530.612 256.026 514.922C240.335 499.232 231.512 477.957 231.494 455.769C231.512 433.58 240.335 412.305 256.026 396.615C271.716 380.925 292.991 372.103 315.181 372.084C337.371 372.103 358.646 380.925 374.337 396.615C390.027 412.305 398.85 433.58 398.868 455.769C398.85 477.957 390.027 499.232 374.337 514.922C358.646 530.612 337.371 539.434 315.181 539.453Z"
          fill=""/>
</svg>
