<?xml version="1.0" ?><!DOCTYPE svg  PUBLIC '-//W3C//DTD SVG 1.1//EN'  'http://www.w3.org/Graphics/SVG/1.1/DTD/svg11.dtd'><svg height="100%" style="fill-rule:evenodd;clip-rule:evenodd;stroke-linejoin:round;stroke-miterlimit:2;" version="1.1" viewBox="0 0 32 32" width="100%" xml:space="preserve" xmlns="http://www.w3.org/2000/svg" xmlns:serif="http://www.serif.com/" xmlns:xlink="http://www.w3.org/1999/xlink"><path d="M24,5.958l0,1.357c-0,0.367 -0.448,0.664 -1,0.664c-0.552,0 -1,-0.297 -1,-0.664l0,-1.357l-5.006,0l-0,1.362c-0,0.364 -0.448,0.659 -1,0.659c-0.552,0 -1,-0.295 -1,-0.659l-0,-1.362l-4.994,0l0,1.404c-0,0.366 -0.448,0.664 -1,0.664c-0.552,-0 -1,-0.298 -1,-0.664l0,-1.404l-1.008,0c-1.657,0 -3,1.343 -3,3l-0,1.222c0.313,-0.111 0.649,-0.171 1,-0.171c-0,0 22.004,0 22.004,0c0.35,0 0.687,0.06 1,0.171l-0,-1.222c-0,-1.657 -1.343,-3 -3,-3l-0.996,0Z"/><path d="M4.992,12.009c-0.553,0 -1,0.448 -1,1l-0,11.996c-0,0.796 0.316,1.559 0.878,2.121c0.563,0.563 1.326,0.879 2.122,0.879c4.184,0 13.82,0 18.004,0c0.796,0 1.559,-0.316 2.121,-0.879c0.563,-0.562 0.879,-1.325 0.879,-2.121c-0,-2.774 -0,-11.996 -0,-11.996c-0,-0.552 -0.448,-1 -1,-1l-22.004,0Zm6.008,8.991l-2,0l0,2l2,0l0,-2Zm4,0l-2,0l0,2l2,0l0,-2Zm4,0l-2,0l0,2l2,0l0,-2Zm4,0l-2,0l0,2l2,0l0,-2Zm-12,-4.018l-2,-0l0,2l2,-0l0,-2Zm4,-0l-2,-0l0,2l2,-0l0,-2Zm4,-0l-2,-0l0,2l2,-0l0,-2Zm4,-0l-2,-0l0,2l2,-0l0,-2Z"/></svg>