<svg width="48" height="48" xmlns="http://www.w3.org/2000/svg"><g ><path d="M24 48c13.255 0 24-10.745 24-24S37.255 0 24 0 0 10.745 0 24c.015 13.249 10.751 23.985 24 24zm0-45.333c11.782 0 21.333 9.55 21.333 21.333 0 11.782-9.55 21.333-21.333 21.333-11.782 0-21.333-9.55-21.333-21.333C2.68 12.223 12.223 2.68 24 2.667z"/><path d="M16.65 14.358c.492-.26 1.062-.337 1.606-.156a2.154 2.154 0 011.347 1.166l.622 1.374a10.73 10.73 0 013.161-.467c3.006 0 5.7 1.218 7.514 3.11.39-.182 1.01-.415 1.685-.596.155-.726.414-1.58.777-2.617.13-.389.57-.57.959-.44.414.129.596.57.466.958-.26.751-.466 1.373-.596 1.891.311 0 .622.026.907.104 1.244.337 1.684 1.451 1.451 2.384-.207.933-.959 1.529-1.814 1.529-.103 0-.207 0-.337-.026-.57-.104-1.27-.337-1.684-1.037-.181-.31-.259-.673-.285-1.14a3.048 3.048 0 00-.518.182c.907 1.347 1.45 2.953 1.45 4.638 0 1.554-.44 3.083-1.295 4.43l.44.778c.752 1.321.312 3.005-1.01 3.757l-.907.518c-1.321.751-3.005.31-3.757-1.01l-.026-.052a11.075 11.075 0 01-5.208.388l-.051.078c-.337.674-.881 1.166-1.581 1.4-.31.103-.596.155-.907.155a2.87 2.87 0 01-1.192-.285l-.958-.467c-.674-.337-1.166-.88-1.4-1.58a2.8 2.8 0 01.13-2.1l.13-.258a9.408 9.408 0 01-1.218-1.658h-.337a2.599 2.599 0 01-2.591-2.592v-1.762c0-1.347 1.036-2.487 2.358-2.59.362-.96.906-1.84 1.58-2.644-1.01-1.114-1.373-2.176-1.14-3.16.337-1.426 1.84-2.074 2.228-2.203zm7.512 6.495h-2.527v4.064h-.265a.639.639 0 00-.64.639l.008.094a.639.639 0 00.632.544h.265v.901h-.29a.613.613 0 00-.614.614l.008.099c.047.291.3.514.605.514h.29l.001 1.093a.702.702 0 101.405 0v-1.093h1.438l.1-.008a.614.614 0 00-.1-1.219H23.04v-.9h1.094l.161-.003a4.304 4.304 0 001.05-.158c.381-.108.714-.275.997-.499.287-.226.513-.51.679-.85.166-.342.248-.74.248-1.193 0-.451-.077-.845-.235-1.178a2.261 2.261 0 00-.654-.827 2.76 2.76 0 00-.985-.48 4.539 4.539 0 00-1.07-.151l-.163-.003zm-.003 1.278l.116.002c.492.015.875.126 1.152.33.282.207.424.543.424 1.03s-.144.837-.43 1.065c-.298.237-.717.359-1.262.359H23.04V22.13h1.12zm9.918-2.056l-.17.01c-.027.362.025.595.103.725.052.103.181.207.673.31.285.052.39-.284.415-.362.052-.181.052-.518-.389-.622a2.68 2.68 0 00-.803-.052z"/><path d="M28.31 16.405c-.363 0-.7-.26-.752-.648-.181-1.27-1.296-2.228-2.617-2.228a2.646 2.646 0 00-2.436 1.58c-.155.389-.596.544-.984.389-.389-.155-.544-.596-.389-.985a4.149 4.149 0 013.809-2.487c2.047 0 3.809 1.529 4.094 3.524.052.414-.233.777-.648.855h-.078"/></g></svg>