<svg width="48" height="48" xmlns="http://www.w3.org/2000/svg"><g  fill-rule="evenodd"><path d="M24.034 37.787c-10.499-2.415-16.273-18.162-9.029-24.88 2.625 1.679 6.509 2.414 9.029.104 2.52 2.31 6.298 1.575 9.028-.105 7.139 6.72 1.365 22.466-9.028 24.88z"/><path d="M24 48c13.255 0 24-10.745 24-24S37.255 0 24 0 0 10.745 0 24c.015 13.249 10.751 23.985 24 24zm0-45.333c11.782 0 21.333 9.55 21.333 21.333 0 11.782-9.55 21.333-21.333 21.333-11.782 0-21.333-9.55-21.333-21.333C2.68 12.223 12.223 2.68 24 2.667z" fill-rule="nonzero"/></g></svg>