<svg width="48" height="48" xmlns="http://www.w3.org/2000/svg"><g><path d="M30.637 24.311a5.057 5.057 0 015.928 3.998 5.057 5.057 0 01-3.998 5.927 5.057 5.057 0 01-5.928-3.998 5.057 5.057 0 013.998-5.927zm.551 2.836a2.167 2.167 0 10.83 4.255 2.167 2.167 0 00-.83-4.255zM15.396 14.03a5.057 5.057 0 015.927 3.999 5.057 5.057 0 01-3.998 5.927 5.057 5.057 0 01-5.927-3.998 5.057 5.057 0 013.998-5.928zm.55 2.836a2.167 2.167 0 10.83 4.255 2.167 2.167 0 00-.83-4.255zm1.956 18.863a1.435 1.435 0 01-1.998.38 1.45 1.45 0 01-.397-1.996L30.06 12.538a1.435 1.435 0 011.998-.38 1.45 1.45 0 01.397 1.996L17.902 35.729z"/><path d="M24 48c13.255 0 24-10.745 24-24S37.255 0 24 0 0 10.745 0 24c.015 13.249 10.751 23.985 24 24zm0-45.333c11.782 0 21.333 9.55 21.333 21.333 0 11.782-9.55 21.333-21.333 21.333-11.782 0-21.333-9.55-21.333-21.333C2.68 12.223 12.223 2.68 24 2.667z"/></g></svg>