<svg width="48" height="48" xmlns="http://www.w3.org/2000/svg"><g  fill-rule="evenodd"><path d="M23.96 9.055c6.088 0 11.04 5.403 11.04 11.956 0 .62-.081 1.24-.162 1.771-.893 4.428-5.196 10.273-8.524 14.967-1.218 1.594-3.491 1.594-4.628 0-3.328-4.694-7.63-10.539-8.605-14.967C13 22.251 13 21.631 13 21.012c0-6.554 4.952-11.957 10.96-11.957zm0 7.953a3.501 3.501 0 013.499 3.496 3.47 3.47 0 01-3.5 3.497 3.502 3.502 0 01-3.5-3.497c0-1.902 1.596-3.496 3.5-3.496z"/><path d="M24 48c13.255 0 24-10.745 24-24S37.255 0 24 0 0 10.745 0 24c.015 13.249 10.751 23.985 24 24zm0-45.333c11.782 0 21.333 9.55 21.333 21.333 0 11.782-9.55 21.333-21.333 21.333-11.782 0-21.333-9.55-21.333-21.333C2.68 12.223 12.223 2.68 24 2.667z" fill-rule="nonzero"/></g></svg>