<svg width="48" height="48" xmlns="http://www.w3.org/2000/svg"><g><path d="M24 48c13.255 0 24-10.745 24-24S37.255 0 24 0 0 10.745 0 24c.015 13.249 10.751 23.985 24 24zm0-45.333c11.782 0 21.333 9.55 21.333 21.333 0 11.782-9.55 21.333-21.333 21.333-11.782 0-21.333-9.55-21.333-21.333C2.68 12.223 12.223 2.68 24 2.667z"/><path d="M30.062 20.179h4.09a.409.409 0 00.408-.41v-7.36a.409.409 0 00-.409-.409h-4.089a.409.409 0 00-.409.409v3.271h-4.78a1.123 1.123 0 00-2.094 0h-4.78v-3.27a.409.409 0 00-.41-.409H13.5a.409.409 0 00-.408.409v7.36c0 .227.183.41.409.41h4.09a.409.409 0 00.408-.41V16.5h4.78c.115.292.347.523.639.637v13.446a1.126 1.126 0 00-.638.638H18V27.95a.409.409 0 00-.41-.41H13.5a.409.409 0 00-.408.41v7.36c0 .227.183.41.409.41h4.09a.409.409 0 00.408-.41v-3.27h4.78a1.123 1.123 0 002.094 0h4.781v3.27c0 .227.183.41.409.41h4.09a.409.409 0 00.408-.41v-7.36a.409.409 0 00-.409-.41h-4.089a.409.409 0 00-.409.41v3.271h-4.78a1.126 1.126 0 00-.638-.638V17.136a1.12 1.12 0 00.637-.638h4.781v3.272c0 .226.183.409.409.409z"/></g></svg>