<svg width="48" height="48" xmlns="http://www.w3.org/2000/svg"><g><path d="M24 48c13.255 0 24-10.745 24-24S37.255 0 24 0 0 10.745 0 24c.015 13.249 10.751 23.985 24 24zm0-45.333c11.782 0 21.333 9.55 21.333 21.333 0 11.782-9.55 21.333-21.333 21.333-11.782 0-21.333-9.55-21.333-21.333C2.68 12.223 12.223 2.68 24 2.667z"/><path d="M27.402 34.177c1.711 0 3.252-.582 4.449-1.78l1.556-1.555a2.666 2.666 0 000-3.765l-2.364-2.365a2.663 2.663 0 00-3.99.256l-1.178 1.525a12.76 12.76 0 01-2.45-1.925 12.755 12.755 0 01-1.913-2.432l1.529-1.18a2.663 2.663 0 00.255-3.99l-2.364-2.365a2.666 2.666 0 00-3.765 0l-1.219 1.219a6.12 6.12 0 00-.351.323c-1.647 1.647-2.176 4.002-1.49 6.632.597 2.284 2.105 4.723 4.247 6.865 2.973 2.973 6.241 4.536 9.048 4.536zM17.495 18.04c.062-.062.137-.13.227-.206l1.327-1.32 2.331 2.331-2.239 1.73c-.609.47-.8 1.306-.455 1.994a15.196 15.196 0 002.842 3.896 15.189 15.189 0 003.917 2.852 1.61 1.61 0 001.993-.456l1.724-2.233 2.331 2.33-1.54 1.54c-2.279 2.28-6.605.339-9.7-2.757-1.81-1.81-3.07-3.814-3.548-5.644-.448-1.72-.183-3.084.79-4.057z"/></g></svg>