<svg width="48" height="48" xmlns="http://www.w3.org/2000/svg"><g><path d="M32.654 19.052l3.006-3.297c-7.712-3.375-16.849-3.634-24.493.027l2.563 3.749c5.886-2.824 12.854-2.794 18.924-.479zm-3.082 3.377c-4.363-1.292-9.155-1.122-13.278.85l2.564 3.749c2.323-1.115 4.94-1.424 7.471-1.052l3.243-3.547zm7.928-5.714a.886.886 0 00-.771.145l-.164.178-13.091 14.334a2.583 2.583 0 00-.794 1.265c-.423 1.578.731 3.265 2.57 3.758 1.607.43 3.198-.184 3.87-1.39l.021-.048 9-17.305c.104-.393-.184-.815-.642-.937z"/><path d="M24 48c13.255 0 24-10.745 24-24S37.255 0 24 0 0 10.745 0 24c.015 13.249 10.751 23.985 24 24zm0-45.333c11.782 0 21.333 9.55 21.333 21.333 0 11.782-9.55 21.333-21.333 21.333-11.782 0-21.333-9.55-21.333-21.333C2.68 12.223 12.223 2.68 24 2.667z"/></g></svg>