<svg width="48" height="48" xmlns="http://www.w3.org/2000/svg"><g><path d="M24 48c13.255 0 24-10.745 24-24S37.255 0 24 0 0 10.745 0 24c.015 13.249 10.751 23.985 24 24zm0-45.333c11.782 0 21.333 9.55 21.333 21.333 0 11.782-9.55 21.333-21.333 21.333-11.782 0-21.333-9.55-21.333-21.333C2.68 12.223 12.223 2.68 24 2.667z"/><path d="M34.357 34.275v-.007l-6.355.786-.119-.955 6.403-.793-.127-1.724a.796.796 0 00-.85-.733l-.25.018L26.864 32l-.173-.947 6.218-1.137-.265-1.693a.797.797 0 00-.908-.66l-.259.04-6.045 1.334-.208-.94 5.182-1.144-.352-1.477a.648.648 0 00-.779-.48l-13.24 3.152a.649.649 0 00-.48.778l.294 1.23-.616.097a.796.796 0 00-.661.907l.182 1.157-.549.04a.796.796 0 00-.733.85l.086 1.168h-.316a.796.796 0 00-.794.794v2.707H35.38v-2.707a.796.796 0 00-.794-.794h-.229zM19.581 9.535a4.351 4.351 0 110 8.702 4.351 4.351 0 010-8.702zm2.902 8.463l1.825 7.269-3.693.927-1.843-7.34a5.01 5.01 0 003.71-.856z"/></g></svg>