<svg width="48" height="48" xmlns="http://www.w3.org/2000/svg"><g><path d="M24 48c13.255 0 24-10.745 24-24S37.255 0 24 0 0 10.745 0 24c.015 13.249 10.751 23.985 24 24zm0-45.333c11.782 0 21.333 9.55 21.333 21.333 0 11.782-9.55 21.333-21.333 21.333-11.782 0-21.333-9.55-21.333-21.333C2.68 12.223 12.223 2.68 24 2.667z"/><path d="M26.601 15.743h-5.205c-.92 0-1.665.624-1.665 1.545l-.944 8.237c0 .919.746 1.518 1.666 1.518h.52l1.281 10.91c0 .56.454 1.095 1.015 1.095h1.46c.56 0 1.014-.535 1.014-1.094l1.285-10.91h.52c.92 0 1.665-.66 1.665-1.578l-.944-8.22c0-.921-.746-1.502-1.668-1.502z"/><circle cx="24" cy="11.745" r="2.793"/></g></svg>