<svg width="48" height="48" xmlns="http://www.w3.org/2000/svg"><path d="M23.928 38.4c5.748.049 10.03-5.185 9.269-10.883-.826-6.18-6.29-10.198-8.553-17.45a.665.665 0 00-1.271.002c-2.453 7.854-8.657 11.914-8.657 19.038 0 5.1 4.111 9.248 9.212 9.293zm-4.782-14.193a9.884 9.884 0 00-.19 1.935 6.967 6.967 0 003.963 6.27 1.36 1.36 0 01-1.078 2.496 6.212 6.212 0 01-4.027-5.8 10.465 10.465 0 011.332-4.9zM24 48c13.255 0 24-10.745 24-24S37.255 0 24 0 0 10.745 0 24c.015 13.249 10.751 23.985 24 24zm0-45.333c11.782 0 21.333 9.55 21.333 21.333 0 11.782-9.55 21.333-21.333 21.333-11.782 0-21.333-9.55-21.333-21.333C2.68 12.223 12.223 2.68 24 2.667z" /></svg>